<?xml version="1.0" encoding="utf-8"?>
<!-- Generator: Adobe Illustrator 25.3.1, SVG Export Plug-In . SVG Version: 6.00 Build 0)  -->
<svg version="1.1" id="Livello_1" xmlns="http://www.w3.org/2000/svg" xmlns:xlink="http://www.w3.org/1999/xlink" x="0px" y="0px"
	 viewBox="0 0 512 512" style="enable-background:new 0 0 512 512;" xml:space="preserve">
<style type="text/css">
	.st0{fill:#FC92E3;stroke:#A760FF;stroke-width:10;stroke-miterlimit:10;}
	.st1{fill:#FCECDD;stroke:#A760FF;stroke-width:10;stroke-miterlimit:10;}
</style>
<g>
	<path class="st0" d="M500.5,277.5c0-26.4-16.6-48.9-39.1-58.7c8.8-8.8,14.7-21.5,14.7-35.2c0-27.4-22.5-49.9-49.9-49.9
		c-2,0-3.9,0-4.9,0c2.9-6.8,4.9-14.7,4.9-22.5c0-27.4-22.5-49.9-49.9-49.9c-8.8,0-16.6,2-23.5,5.9c-6.8-19.6-25.4-36.2-46.9-36.2
		c-27.4,0-48.9,25.4-49.9,45h0v342.3h1l0,0c0,35.2,28.4,62.6,63.6,62.6c31.3,0,56.7-22.5,62.6-51.8c5.9,2,12.7,2.9,19.6,2.9
		c35.2,0,63.6-28.4,63.6-63.6c0-10.8-2.9-21.5-7.8-31.3C481.9,329.3,500.5,305.9,500.5,277.5z"/>
	<path class="st0" d="M11.5,277.5c0-26.4,16.6-48.9,39.1-58.7C41.8,210,36,197.3,36,183.6c0-27.4,22.5-49.9,49.9-49.9
		c2,0,3.9,0,4.9,0c-2.9-6.8-4.9-14.7-4.9-22.5c0-27.4,22.5-49.9,49.9-49.9c8.8,0,16.6,2,23.5,5.9c6.8-19.6,25.4-36.2,46.9-36.2
		c27.4,0,48.9,25.4,49.9,45l0,0v342.3h-1l0,0c0,35.2-28.4,62.6-63.6,62.6c-31.3,0-56.7-22.5-62.6-51.8c-5.9,2-12.7,2.9-19.6,2.9
		c-35.2,0-63.6-28.4-63.6-63.6c0-10.8,2.9-21.5,7.8-31.3C30.1,329.3,11.5,305.9,11.5,277.5z"/>
</g>
<path class="st1" d="M298.5,83.2L128.6,274.5c-1.2,1.4-0.3,3.5,1.6,3.5l100.7,1.2c1.4,0,2.4,1.3,2,2.6L195.9,427
	c-0.5,2.1,2.1,3.6,3.6,2L383,234.6c1.3-1.4,0.3-3.6-1.5-3.6H269.3c-1.4,0-2.4-1.3-2.1-2.6l34.9-143.2C302.7,83,300,81.6,298.5,83.2z
	"/>
</svg>
